<svg xmlns="http://www.w3.org/2000/svg" xmlns:svg="http://www.w3.org/2000/svg" id="svg2" width="64" height="64" version="1.1"><metadata id="metadata7"/><g id="layer1" transform="translate(0,-988.36218)"><path style="font-size:59.251518249999997px;font-style:normal;font-variant:normal;font-weight:400;font-stretch:normal;line-height:125%;letter-spacing:0;word-spacing:0;fill:#c9874d;fill-opacity:1;stroke:none;font-family:Segoe UI Emoji;-inkscape-font-specification:Segoe UI Emoji" id="path2995" d="m 24.405506,996.33461 c -0.17361,1.89023 -0.761882,3.61647 -1.764816,5.17869 -1.002974,1.5624 -2.285599,2.8257 -3.847876,3.79 -0.0193,-0.1928 -0.03377,-0.4194 -0.0434,-0.6798 -0.0097,-0.2604 -0.01448,-0.5352 -0.01447,-0.8246 -1.7e-5,-0.4436 0.01927,-0.9209 0.05786,-1.4321 0.03856,-0.5111 0.115708,-1.027 0.231451,-1.5478 0.366447,-1.69729 0.906499,-3.24511 1.620158,-4.64351 0.713623,-1.3983 1.59603,-2.60378 2.647224,-3.61643 1.051152,-1.01254 2.275914,-1.79851 3.674289,-2.35791 1.398325,-0.55928 2.965441,-0.83895 4.701353,-0.83901 0.03855,6e-5 0.09159,0.01 0.159123,0.0289 0.06748,0.0194 0.130161,0.029 0.188054,0.0289 l 0.376108,-0.0579 c 1.793715,6e-5 3.447626,0.32795 4.961736,0.98367 1.51404,0.65583 2.849705,1.53342 4.007,2.63276 -1.157295,1.1573 -2.488138,2.06382 -3.992534,2.71955 -1.504467,0.65583 -3.11498,0.98372 -4.831545,0.98367 -1.04156,5e-5 -2.068624,-0.13015 -3.081195,-0.39058 -1.012625,-0.26033 -1.981826,-0.62197 -2.907606,-1.08492 -0.212188,-0.13497 -0.453282,-0.20247 -0.723285,-0.20252 -0.27005,5e-5 -0.501501,0.0675 -0.694354,0.20252 -0.212186,0.0965 -0.385774,0.24596 -0.520765,0.44843 -0.135036,0.20257 -0.202542,0.4292 -0.20252,0.67989 z"/><path style="font-size:59.251518249999997px;font-style:normal;font-variant:normal;font-weight:400;font-stretch:normal;line-height:125%;letter-spacing:0;word-spacing:0;fill:#ffdfcd;fill-opacity:1;stroke:none;font-family:Segoe UI Emoji;-inkscape-font-specification:Segoe UI Emoji" id="path2990" d="m 30.683625,1030.011 c -1.215146,-0.8294 -2.295251,-1.7745 -3.240317,-2.8353 -0.945117,-1.0608 -1.658758,-2.1795 -2.140924,-3.3561 -0.27005,-0.6557 -0.44846,-1.2729 -0.535231,-1.8516 -0.08682,-0.5786 -0.130214,-1.1476 -0.130192,-1.7069 l 0,-4.0793 c -0.01931,-0.019 -0.110926,-0.092 -0.274848,-0.217 -0.163967,-0.1254 -0.347199,-0.2749 -0.549697,-0.4485 -0.202541,-0.1735 -0.409882,-0.3519 -0.622025,-0.5352 -0.212184,-0.1832 -0.376129,-0.352 -0.491834,-0.5063 -0.55936,-0.675 -1.133166,-1.5285 -1.721418,-2.5604 -0.588291,-1.0319 -1.104233,-2.2132 -1.547831,-3.5441 1.890166,-1.0029 3.505502,-2.3531 4.846011,-4.0504 1.340465,-1.6973 2.261447,-3.5971 2.762949,-5.69951 0.867916,0.34722 1.755145,0.59796 2.661689,0.75222 0.906489,0.15434 1.851581,0.23149 2.835278,0.23145 2.063741,4e-5 4.011787,-0.37606 5.844144,-1.12832 1.832284,-0.75218 3.442798,-1.7937 4.831545,-3.1246 0.501436,0.79084 0.911297,1.61056 1.229584,2.45917 0.318203,0.8487 0.573764,1.73593 0.766683,2.66169 0.0964,0.4629 0.159079,0.921 0.188054,1.3742 0.02889,0.4533 0.04335,0.8728 0.0434,1.2586 -4.3e-5,0.3472 -0.0097,0.6702 -0.02893,0.9692 -0.01933,0.299 -0.03862,0.5545 -0.05786,0.7666 -0.03862,0.2508 -0.06755,0.4726 -0.0868,0.6655 -0.212206,1.6394 -0.660642,3.2307 -1.34531,4.7736 -0.684751,1.5431 -1.567158,2.9414 -2.647223,4.1951 -0.115765,0.1543 -0.270066,0.3231 -0.462903,0.5063 -0.192914,0.1833 -0.376147,0.3617 -0.549697,0.5352 -0.173626,0.1736 -0.327927,0.3231 -0.462902,0.4485 -0.135051,0.1254 -0.212201,0.1977 -0.231451,0.217 l 0,4.0793 c -3.8e-5,0.5593 -0.06754,1.1235 -0.20252,1.6925 -0.135051,0.569 -0.327926,1.1621 -0.578628,1.7793 -0.501514,1.2151 -1.224799,2.3482 -2.169856,3.3994 -0.945126,1.0512 -2.044518,2.0107 -3.29818,2.8787 z"/><path id="path2999" d="m 56.790353,1034.2743 c 0.231396,1.0415 0.414628,2.03 0.549697,2.9654 0.134958,0.9355 0.202464,1.8276 0.20252,2.6762 -5.6e-5,1.9288 -0.405095,3.6068 -1.215119,5.0341 -0.810133,1.4272 -2.198839,2.6086 -4.166123,3.5441 -1.967384,0.9354 -4.595317,1.6346 -7.883808,2.0975 -3.288575,0.4629 -7.401652,0.6943 -12.339244,0.6943 -3.317496,0 -6.25403,-0.1012 -8.809614,-0.3037 -2.555626,-0.2026 -4.77852,-0.516 -6.668689,-0.9403 -1.890197,-0.4243 -3.486244,-0.9499 -4.788147,-1.5768 -1.301921,-0.6268 -2.348273,-1.3646 -3.139057,-2.2132 -0.790798,-0.8487 -1.359781,-1.8034 -1.706953,-2.8642 -0.347182,-1.0608 -0.52077,-2.2374 -0.520766,-3.5297 -4e-6,-0.8486 0.06268,-1.731 0.188055,-2.6472 0.125364,-0.9161 0.303775,-1.895 0.535231,-2.9365 l 0.08679,0.058 c 0.347171,-1.4658 0.998127,-2.7484 1.952869,-3.8478 0.954729,-1.0994 2.097519,-2.0493 3.428372,-2.8498 1.330833,-0.8004 2.782223,-1.4706 4.354176,-2.0107 1.571923,-0.54 3.139039,-0.9837 4.701353,-1.3309 -0.03859,1.2345 -0.07235,2.4207 -0.10126,3.5586 -0.02895,1.138 -0.05306,2.2711 -0.07233,3.3994 -0.01931,1.1284 -0.03859,2.2663 -0.05786,3.414 -0.01931,1.1476 -0.03859,2.3386 -0.05786,3.573 l 9.344845,-8.3033 2.63276,0 9.373775,8.3033 c -4e-5,-1.2151 -4e-5,-2.4544 0,-3.7177 -4e-5,-1.2633 0.0048,-2.5122 0.01447,-3.7466 0.0096,-1.2344 0.02407,-2.4158 0.0434,-3.5441 0.01925,-1.1283 0.04818,-2.1554 0.08679,-3.0812 1.542966,0.3472 3.081151,0.786 4.61456,1.3164 1.533317,0.5304 2.946133,1.1958 4.23845,1.9962 1.292219,0.8005 2.396433,1.7649 3.312646,2.8932 0.916108,1.1283 1.538132,2.4543 1.866076,3.978 z" style="font-size:59.251518249999997px;font-style:normal;font-variant:normal;font-weight:400;font-stretch:normal;line-height:125%;letter-spacing:0;word-spacing:0;fill:#0e46ac;fill-opacity:1;stroke:none;font-family:Segoe UI Emoji;-inkscape-font-specification:Segoe UI Emoji"/></g></svg>